<svg width="299" height="98" viewBox="0 0 299 98" fill="none" xmlns="http://www.w3.org/2000/svg">
<path d="M51.3435 62.7603C51.2228 62.5237 51.131 62.3415 51.0368 62.1608C49.8757 59.9324 47.0781 58.4853 44.594 58.8276C42.4609 59.1214 40.6835 60.8949 40.059 63.3987C39.3859 66.0987 39.8719 68.7016 40.8431 71.2323C42.4272 75.3592 44.9358 78.889 48.0257 82.0125C50.1627 84.1726 51.867 84.1361 53.9704 81.9385C56.8906 78.8871 59.2603 75.4611 60.9045 71.5564C61.8737 69.2559 62.5872 66.8862 62.6953 64.3704C62.7737 62.5535 62.5396 60.8036 61.5054 59.244C60.192 57.2637 58.0314 56.68 55.9064 57.7257C54.5853 58.3757 53.5411 59.3464 52.7166 60.5502C52.244 61.2406 51.831 61.9713 51.3435 62.7603ZM92.4706 74.3612C92.422 77.764 91.6552 81.0058 90.0884 84.0178C87.4293 89.1283 83.5827 93.0894 78.4327 95.7446C73.3563 98.3619 68.1539 98.6614 62.8381 96.5778C60.6804 95.7317 58.529 94.8581 56.4252 93.8884C52.6026 92.1259 48.7959 92.1428 44.8868 93.6067C42.1412 94.635 39.3546 95.5725 36.5393 96.3869C33.6234 97.2307 30.622 97.5389 27.5797 97.1917C24.9498 96.8918 22.728 95.7269 20.8029 93.9639C18.3477 91.7158 16.3831 89.0909 15.1434 85.9952C13.5546 82.0279 13.9363 78.2005 16.2495 74.5857C18.0604 71.7554 20.5055 69.4972 22.8741 67.1612C24.596 65.4631 26.2817 63.7194 27.8677 61.8954C29.6975 59.7901 30.7903 57.2497 31.696 54.6397C32.5369 52.218 33.3004 49.77 34.1302 47.3445C34.7297 45.5921 35.8297 44.1345 36.9167 42.6571C39.5335 39.1008 43.2661 37.5446 47.3877 36.6287C52.2733 35.5427 56.531 36.9432 60.1641 40.1566C62.3997 42.1335 64.3347 44.4494 66.4155 46.6027C69.9597 50.2705 73.7193 53.6959 77.9313 56.5892C80.0279 58.0295 82.2284 59.3204 84.3077 60.7838C87.2826 62.8781 89.7927 65.4189 91.3244 68.792C92.1268 70.5588 92.4437 72.4314 92.4706 74.3612Z" fill="#332C22"/>
<path d="M44.5001 23.9058C44.5083 26.6296 44.0256 29.571 42.7347 32.3344C41.3535 35.2902 39.3549 37.6281 36.0684 38.5377C33.3641 39.2868 30.8675 38.6834 28.5401 37.2296C25.4782 35.3176 23.4075 32.5426 21.8676 29.3513C19.6313 24.7164 18.7695 19.8132 19.2278 14.6892C19.4986 11.6623 20.3545 8.83309 22.0456 6.25965C24.9621 1.8217 30.2041 0.567335 34.7622 3.26794C37.7194 5.02019 39.791 7.5782 41.366 10.5661C43.5126 14.638 44.5352 18.9931 44.5001 23.9058Z" fill="#332C22"/>
<path d="M76.3306 15.7903C76.3354 21.3403 75.3109 25.997 72.7864 30.2576C71.3749 32.6403 69.5696 34.6681 67.0735 35.9724C63.425 37.8792 59.4082 37.1806 56.5438 34.1989C54.2765 31.8388 53.0462 28.9658 52.3871 25.8216C51.2486 20.3856 51.8361 15.0757 53.7611 9.911C54.6928 7.41135 56.0539 5.12382 58.0101 3.27845C59.8125 1.57803 61.8663 0.246116 64.4254 0.0335693C67.6812 -0.236861 70.2374 1.14298 72.2811 3.58172C74.3874 6.09545 75.4393 9.07644 75.9614 12.2584C76.1864 13.6303 76.2542 15.0281 76.3306 15.7903Z" fill="#332C22"/>
<path d="M0 42.5446C0.0450477 40.0658 0.518121 37.7355 1.99191 35.7139C3.91747 33.0716 6.61346 32.0971 9.79868 32.2966C13.0216 32.4985 15.7651 33.8908 18.2283 35.8548C22.6158 39.3533 25.5176 43.8196 26.672 49.346C27.183 51.7907 27.221 54.2585 26.3657 56.6397C24.8954 60.7339 21.5413 62.8483 17.1699 62.5099C14.4503 62.2993 12.0564 61.2118 9.85998 59.6637C5.12535 56.3263 2.07705 51.7897 0.533553 46.2446C0.202162 45.0542 0.169999 43.7802 0 42.5446Z" fill="#332C22"/>
<path d="M99.6143 34.8124C98.8807 42.5114 95.7485 48.4628 89.6745 52.7493C87.9875 53.9397 86.0904 54.6286 84.0183 54.8387C80.5145 55.194 77.3285 53.2214 76.0112 49.846C74.8535 46.8787 74.9208 43.8422 75.6491 40.821C77.0506 35.0057 80.1765 30.3081 85.089 26.8644C87.2635 25.3399 89.7308 24.7176 92.3836 24.9389C95.4677 25.1962 98.0749 27.5101 98.9764 30.9129C99.3408 32.2889 99.4446 33.7331 99.6143 34.8124Z" fill="#332C22"/>
<path d="M244.023 60.3481H251.11L241.766 71.6545L251.933 83.9311H244.635L234.995 71.9709V83.9311H228.561V60.3481H234.995V71.8021L244.023 60.3481Z" fill="#332C22"/>
<path d="M224.112 72.0975C224.112 74.0663 223.845 75.81 223.31 77.3288C222.79 78.8476 222.023 80.1343 221.011 81.189C220.012 82.2296 218.803 83.0171 217.383 83.5515C215.977 84.0859 214.387 84.3531 212.616 84.3531C210.956 84.3531 209.43 84.0859 208.038 83.5515C206.66 83.0171 205.458 82.2296 204.431 81.189C203.419 80.1343 202.631 78.8476 202.069 77.3288C201.52 75.81 201.246 74.0663 201.246 72.0975C201.246 69.4819 201.71 67.267 202.638 65.453C203.566 63.6389 204.888 62.2608 206.604 61.3186C208.319 60.3764 210.366 59.9053 212.742 59.9053C214.95 59.9053 216.905 60.3764 218.606 61.3186C220.322 62.2608 221.665 63.6389 222.635 65.453C223.62 67.267 224.112 69.4819 224.112 72.0975ZM207.806 72.0975C207.806 73.6444 207.975 74.9452 208.312 75.9999C208.65 77.0546 209.177 77.8491 209.894 78.3835C210.612 78.9179 211.547 79.1851 212.7 79.1851C213.839 79.1851 214.76 78.9179 215.463 78.3835C216.18 77.8491 216.701 77.0546 217.024 75.9999C217.362 74.9452 217.53 73.6444 217.53 72.0975C217.53 70.5366 217.362 69.2428 217.024 68.2163C216.701 67.1756 216.18 66.3951 215.463 65.8748C214.746 65.3545 213.811 65.0944 212.658 65.0944C210.956 65.0944 209.719 65.678 208.945 66.8452C208.186 68.0123 207.806 69.7631 207.806 72.0975Z" fill="#332C22"/>
<path d="M196.794 60.3481V83.9311H190.339V65.1786H181.796V83.9311H175.362V60.3481H196.794Z" fill="#332C22"/>
<path d="M159.771 59.8628C162.935 59.8628 165.361 60.5519 167.048 61.93C168.736 63.3081 169.579 65.4034 169.579 68.216V83.9309H165.086L163.842 80.7246H163.673C162.998 81.5684 162.309 82.2574 161.606 82.7918C160.903 83.3262 160.094 83.7199 159.18 83.9731C158.266 84.2262 157.155 84.3528 155.847 84.3528C154.455 84.3528 153.203 84.0856 152.092 83.5512C150.996 83.0168 150.131 82.2012 149.498 81.1043C148.865 79.9934 148.549 78.5871 148.549 76.8855C148.549 74.3824 149.428 72.5402 151.185 71.3589C152.943 70.1636 155.58 69.5027 159.096 69.3761L163.188 69.2496V68.216C163.188 66.9785 162.864 66.0714 162.218 65.4949C161.571 64.9183 160.671 64.63 159.518 64.63C158.378 64.63 157.26 64.7917 156.164 65.1152C155.067 65.4386 153.97 65.8464 152.873 66.3386L150.742 61.9933C151.994 61.3323 153.393 60.812 154.94 60.4323C156.501 60.0526 158.111 59.8628 159.771 59.8628ZM163.188 73.0043L160.699 73.0886C158.618 73.1449 157.169 73.5175 156.353 74.2066C155.552 74.8957 155.151 75.8027 155.151 76.9277C155.151 77.9121 155.439 78.6152 156.016 79.0371C156.592 79.4449 157.345 79.6488 158.273 79.6488C159.651 79.6488 160.811 79.241 161.753 78.4254C162.71 77.6098 163.188 76.4496 163.188 74.9449V73.0043Z" fill="#332C22"/>
<path d="M143.697 83.931H137.179V58.534H129.627C129.458 59.8559 129.276 61.2973 129.079 62.8583C128.882 64.4192 128.678 65.9942 128.467 67.5833C128.256 69.1723 128.031 70.6841 127.792 72.1185C127.567 73.5528 127.342 74.8114 127.117 75.8943C126.751 77.6943 126.252 79.2271 125.619 80.4927C125.001 81.7443 124.15 82.7005 123.067 83.3615C121.998 84.0224 120.599 84.3529 118.869 84.3529C118.293 84.3529 117.737 84.3107 117.203 84.2263C116.683 84.142 116.197 84.0295 115.747 83.8888V78.531C116.113 78.6575 116.479 78.763 116.844 78.8474C117.21 78.9177 117.611 78.9529 118.047 78.9529C118.609 78.9529 119.073 78.7701 119.439 78.4044C119.819 78.0247 120.156 77.3849 120.451 76.4849C120.747 75.5708 121.042 74.3122 121.337 72.7091C121.464 72.006 121.633 71.0145 121.844 69.7348C122.054 68.4411 122.294 66.9294 122.561 65.1997C122.828 63.4559 123.102 61.5575 123.383 59.5043C123.679 57.4512 123.96 55.3137 124.227 53.0918H143.697V83.931Z" fill="#332C22"/>
<path d="M288.597 20.3672C291.761 20.3672 294.187 21.0563 295.874 22.4344C297.562 23.8125 298.405 25.9078 298.405 28.7204V44.4353H293.912L292.668 41.229H292.499C291.824 42.0728 291.135 42.7618 290.432 43.2962C289.729 43.8306 288.92 44.2243 288.006 44.4775C287.092 44.7306 285.981 44.8572 284.673 44.8572C283.281 44.8572 282.029 44.59 280.919 44.0556C279.822 43.5212 278.957 42.7056 278.324 41.6087C277.691 40.4978 277.375 39.0915 277.375 37.3899C277.375 34.8868 278.254 33.0446 280.011 31.8633C281.769 30.668 284.406 30.0071 287.922 29.8805L292.014 29.754V28.7204C292.014 27.4828 291.69 26.5758 291.044 25.9992C290.397 25.4227 289.497 25.1344 288.344 25.1344C287.204 25.1344 286.087 25.2961 284.99 25.6196C283.893 25.943 282.796 26.3508 281.699 26.843L279.569 22.4977C280.82 21.8367 282.219 21.3164 283.766 20.9367C285.327 20.557 286.937 20.3672 288.597 20.3672ZM292.014 33.5087L289.525 33.593C287.444 33.6493 285.995 34.0219 285.179 34.711C284.378 35.4001 283.977 36.3071 283.977 37.4321C283.977 38.4165 284.265 39.1196 284.842 39.5415C285.419 39.9493 286.171 40.1532 287.099 40.1532C288.477 40.1532 289.637 39.7454 290.58 38.9298C291.536 38.1142 292.014 36.954 292.014 35.4493V33.5087Z" fill="#332C22"/>
<path d="M268.513 20.8525H275.601L266.256 32.1588L276.424 44.4355H269.125L259.485 32.4753V44.4355H253.052V20.8525H259.485V32.3065L268.513 20.8525Z" fill="#332C22"/>
<path d="M231.748 20.8525V29.9229H240.734V20.8525H247.168V44.4355H240.734V34.7112H231.748V44.4355H225.315V20.8525H231.748Z" fill="#332C22"/>
<path d="M201.265 20.8525V30.176C201.265 30.6542 201.244 31.2588 201.202 31.9901C201.174 32.7073 201.132 33.4385 201.075 34.1839C201.019 34.9292 200.963 35.5971 200.907 36.1878C200.85 36.7784 200.808 37.1792 200.78 37.3901L211.664 20.8525H219.406V44.4355H213.183V35.0276C213.183 34.2542 213.211 33.4034 213.268 32.4753C213.324 31.5331 213.387 30.6471 213.457 29.8174C213.528 28.9877 213.577 28.3619 213.605 27.9401L202.763 44.4355H195.042V20.8525H201.265Z" fill="#332C22"/>
<path d="M191.5 25.683H183.78V44.4355H177.346V25.683H169.605V20.8525H191.5V25.683Z" fill="#332C22"/>
<path d="M156.399 20.3672C159.563 20.3672 161.989 21.0563 163.676 22.4344C165.364 23.8125 166.208 25.9078 166.208 28.7204V44.4353H161.715L160.47 41.229H160.301C159.626 42.0728 158.937 42.7618 158.234 43.2962C157.531 43.8306 156.722 44.2243 155.808 44.4775C154.894 44.7306 153.783 44.8572 152.475 44.8572C151.083 44.8572 149.832 44.59 148.721 44.0556C147.624 43.5212 146.759 42.7056 146.126 41.6087C145.493 40.4978 145.177 39.0915 145.177 37.3899C145.177 34.8868 146.056 33.0446 147.814 31.8633C149.572 30.668 152.208 30.0071 155.724 29.8805L159.816 29.754V28.7204C159.816 27.4828 159.493 26.5758 158.846 25.9992C158.199 25.4227 157.299 25.1344 156.146 25.1344C155.007 25.1344 153.889 25.2961 152.792 25.6196C151.695 25.943 150.598 26.3508 149.501 26.843L147.371 22.4977C148.622 21.8367 150.022 21.3164 151.568 20.9367C153.129 20.557 154.74 20.3672 156.399 20.3672ZM159.816 33.5087L157.327 33.593C155.246 33.6493 153.797 34.0219 152.982 34.711C152.18 35.4001 151.779 36.3071 151.779 37.4321C151.779 38.4165 152.068 39.1196 152.644 39.5415C153.221 39.9493 153.973 40.1532 154.901 40.1532C156.279 40.1532 157.44 39.7454 158.382 38.9298C159.338 38.1142 159.816 36.954 159.816 35.4493V33.5087Z" fill="#332C22"/>
<path d="M144.227 44.4354H136.76L129.588 32.7705L122.416 44.4354H115.413L125.643 28.5306L116.067 13.5962H123.281L129.926 24.6916L136.444 13.5962H143.489L133.807 28.8892L144.227 44.4354Z" fill="#332C22"/>
</svg>
